<svg width="375" height="667" xmlns="http://www.w3.org/2000/svg">
  <!-- 背景 -->
  <rect width="375" height="667" fill="#f5f5f5"/>
  
  <!-- 顶部导航栏 -->
  <rect x="0" y="0" width="375" height="44" fill="white"/>
  <text x="187.5" y="28" font-family="Arial" font-size="18" fill="#333333" text-anchor="middle" font-weight="bold">个人中心</text>
  
  <!-- 用户信息卡片 -->
  <rect x="0" y="44" width="375" height="150" fill="#FF8C42"/>
  <circle cx="70" cy="119" r="40" fill="white"/>
  <text x="70" y="125" font-family="Arial" font-size="40" fill="#FF8C42" text-anchor="middle">👤</text>
  <text x="180" y="100" font-family="Arial" font-size="18" fill="white" font-weight="bold">微信昵称</text>
  <text x="180" y="125" font-family="Arial" font-size="14" fill="rgba(255,255,255,0.8)">@用户名</text>
  <text x="180" y="145" font-family="Arial" font-size="12" fill="rgba(255,255,255,0.8)">已使用30天</text>
  
  <!-- 数据统计卡片 -->
  <rect x="20" y="210" width="335" height="120" rx="16" ry="16" fill="white" style="filter: drop-shadow(0px 2px 4px rgba(0,0,0,0.05));"/>
  <text x="35" y="240" font-family="Arial" font-size="16" fill="#333333" font-weight="500">我的数据</text>
  <rect x="35" y="260" width="305" height="1" fill="#f0f0f0"/>
  <text x="125" y="295" font-family="Arial" font-size="14" fill="#333333">📊 已读卡片</text>
  <text x="125" y="320" font-family="Arial" font-size="14" fill="#333333">❤️ 收藏卡片</text>
  <text x="125" y="345" font-family="Arial" font-size="14" fill="#333333">🔥 连续签到</text>
  <text x="310" y="295" font-family="Arial" font-size="16" fill="#FF8C42" font-weight="bold" text-anchor="end">30篇</text>
  <text x="310" y="320" font-family="Arial" font-size="16" fill="#FF8C42" font-weight="bold" text-anchor="end">15篇</text>
  <text x="310" y="345" font-family="Arial" font-size="16" fill="#FF8C42" font-weight="bold" text-anchor="end">7天</text>
  
  <!-- 设置选项卡片 -->
  <rect x="20" y="350" width="335" height="230" rx="16" ry="16" fill="white" style="filter: drop-shadow(0px 2px 4px rgba(0,0,0,0.05));"/>
  <text x="35" y="380" font-family="Arial" font-size="16" fill="#333333" font-weight="500">偏好设置</text>
  <rect x="35" y="400" width="305" height="1" fill="#f0f0f0"/>
  
  <text x="50" y="435" font-family="Arial" font-size="14" fill="#333333">🎨 主题选择</text>
  <text x="330" y="435" font-family="Arial" font-size="14" fill="#999999" text-anchor="end">＞</text>
  
  <text x="50" y="470" font-family="Arial" font-size="14" fill="#333333">🔤 字体大小</text>
  <text x="330" y="470" font-family="Arial" font-size="14" fill="#999999" text-anchor="end">＞</text>
  
  <text x="50" y="505" font-family="Arial" font-size="14" fill="#333333">🔔 通知设置</text>
  <text x="330" y="505" font-family="Arial" font-size="14" fill="#999999" text-anchor="end">＞</text>
  
  <text x="50" y="540" font-family="Arial" font-size="14" fill="#333333">✉️ 意见反馈</text>
  <text x="330" y="540" font-family="Arial" font-size="14" fill="#999999" text-anchor="end">＞</text>
  
  <text x="50" y="575" font-family="Arial" font-size="14" fill="#333333">📱 关于我们</text>
  <text x="330" y="575" font-family="Arial" font-size="14" fill="#999999" text-anchor="end">＞</text>
  
  <!-- 底部导航栏 -->
  <rect x="0" y="623" width="375" height="44" fill="white"/>
  <text x="62.5" y="647" font-family="Arial" font-size="24" fill="#999999" text-anchor="middle">🏠</text>
  <text x="187.5" y="647" font-family="Arial" font-size="24" fill="#999999" text-anchor="middle">📜</text>
  <text x="312.5" y="647" font-family="Arial" font-size="24" fill="#FF8C42" text-anchor="middle">👤</text>
</svg>